<svg xmlns="http://www.w3.org/2000/svg" version="1.1" xmlns:xlink="http://www.w3.org/1999/xlink" width="512" height="512" x="0" y="0" viewBox="0 0 512 512" style="enable-background:new 0 0 512 512" xml:space="preserve" class=""><g><path d="M256 0C114.831 0 0 114.831 0 256s114.831 256 256 256 256-114.831 256-256S397.169 0 256 0zm10.24 81.818 66.232-48.333c44.81 15.442 83.456 44.012 111.452 81.142l-25.436 77.742-82.903 26.89-69.345-50.381v-87.06zm-86.712-48.333 66.232 48.333v87.06l-69.345 50.381-82.903-26.89-25.436-77.742c27.996-37.131 66.641-65.7 111.452-81.142zM63.283 390.963c-26.112-37.192-41.718-82.145-42.578-130.744l66.499-48.374 82.719 26.849 26.604 81.859-51.2 70.41H63.283zm261.427 90.276c-21.75 6.636-44.81 10.281-68.71 10.281s-46.961-3.645-68.71-10.281l-25.416-78.234 51.282-70.492h85.688l51.282 70.492-25.416 78.234zm41.964-90.276-51.2-70.41 26.604-81.859 82.719-26.849 66.499 48.374c-.86 48.599-16.466 93.553-42.578 130.744h-82.044z" fill="#ffffff" opacity="1" data-original="#000000" class=""></path></g></svg>
