<?xml version="1.0" encoding="utf-8"?>
<!-- Generator: Adobe Illustrator 28.0.0, SVG Export Plug-In . SVG Version: 6.00 Build 0)  -->
<svg version="1.1" id="Livello_1" xmlns="http://www.w3.org/2000/svg" xmlns:xlink="http://www.w3.org/1999/xlink" x="0px" y="0px"
	 viewBox="0 0 720 404.8" style="enable-background:new 0 0 720 404.8;" xml:space="preserve">
<style type="text/css">
	.st0{fill:#A3E635;}
	.st1{fill:#09D72B;}
</style>
<path class="st0" d="M96.3,371.5h103.5c2.9,0,5.4-1.8,6.5-4.4L332.5,40.6c1.8-4.5-1.6-9.4-6.5-9.4H222.6c-2.9,0-5.4,1.8-6.5,4.4
	L89.9,362.1C88.1,366.7,91.5,371.5,96.3,371.5L96.3,371.5z"/>
<path class="st0" d="M230.5,362L356,35.6c1-2.7,3.6-4.4,6.5-4.4l311.2,0c6.2,0,9.3,7.5,4.9,11.9L558.8,161.4
	c-1.5,1.4-1.6,3.7-0.4,5.4l140.8,193.8c3.3,4.6,0.1,11-5.6,11l-456.6-0.1C232.1,371.4,228.7,366.6,230.5,362L230.5,362z"/>
<circle class="st1" cx="448.2" cy="225.4" r="67.2"/>
<path class="st1" d="M20.7,181.4h416.1c3.5,0,6.2,2.8,6.2,6.2v5.6c0,3.5-2.8,6.2-6.2,6.2H20.7c-3.5,0-6.2-2.8-6.2-6.2v-5.6
	C14.5,184.2,17.3,181.4,20.7,181.4z"/>
<path class="st1" d="M303.4,216.2h87.7c3.5,0,6.2,2.8,6.2,6.2v5.6c0,3.5-2.8,6.2-6.2,6.2h-87.7c-3.5,0-6.2-2.8-6.2-6.2v-5.6
	C297.2,219,300,216.2,303.4,216.2z"/>
<path class="st1" d="M195.3,248.6h274.2c3.5,0,6.2,2.8,6.2,6.2v5.6c0,3.5-2.8,6.2-6.2,6.2H195.3c-3.5,0-6.2-2.8-6.2-6.2v-5.6
	C189,251.4,191.8,248.6,195.3,248.6z"/>
<path class="st1" d="M159.7,216.2H225c3.5,0,6.2,2.8,6.2,6.2v5.6c0,3.5-2.8,6.2-6.2,6.2h-65.4c-3.5,0-6.2-2.8-6.2-6.2v-5.6
	C153.4,219,156.2,216.2,159.7,216.2z"/>
</svg>
